<svg class="hidden" xmlns="http://www.w3.org/2000/svg">
    
    <symbol  viewBox="0 0 20 20" id="facebook">
    <path d="M10 .4C4.698.4.4 4.698.4 10s4.298 9.6 9.6 9.6 9.6-4.298 9.6-9.6S15.302.4 10 .4zm2.274 6.634h-1.443c-.171 0-.361.225-.361.524V8.6h1.805l-.273 1.486H10.47v4.461H8.767v-4.461H7.222V8.6h1.545v-.874c0-1.254.87-2.273 2.064-2.273h1.443v1.581z"/>
    </symbol>
    
    <symbol viewBox="0 0 15 15" id="telegram">
    <path d="M14.9932 1.58221C15.0223 1.40736 14.9567 1.23016 14.8208 1.11645C14.6848 1.00274 14.4988 0.969519 14.3318 1.02914L0.331836 6.02914C0.143209 6.0965 0.0129867 6.26994 0.000913704 6.46987C-0.0111592 6.6698 0.0972469 6.85765 0.276398 6.94722L4.2764 8.94722C4.43688 9.02746 4.62806 9.01556 4.77735 8.91603L8.09775 6.70244L6.10957 9.18766C6.02203 9.29709 5.98442 9.43824 6.00592 9.57672C6.02742 9.7152 6.10605 9.8383 6.22265 9.91603L12.2227 13.916C12.3638 14.0101 12.5431 14.0262 12.6988 13.9588C12.8545 13.8914 12.9653 13.7496 12.9932 13.5822L14.9932 1.58221Z"/>
    </symbol>

    <symbol viewBox="0 0 32 32" id="messenger">
    <path d="M11.409 12.816l-4.393 6.988c-0.071 0.108-0.112 0.24-0.112 0.381 0 0.388 0.315 0.703 0.703 0.703 0.164 0 0.314-0.056 0.434-0.15l4.728-3.581c0.148-0.117 0.337-0.187 0.543-0.187s0.395 0.070 0.545 0.189l-0.002-0.001 3.494 2.621c0.37 0.278 0.838 0.445 1.344 0.445 0.795 0 1.495-0.412 1.895-1.035l0.005-0.009 4.393-6.988c0.069-0.107 0.11-0.238 0.11-0.378 0-0.389-0.315-0.704-0.704-0.704-0.162 0-0.312 0.055-0.431 0.147l0.002-0.001-4.73 3.582c-0.146 0.117-0.333 0.187-0.537 0.187s-0.391-0.071-0.538-0.189l0.002 0.001-3.494-2.621c-0.372-0.283-0.843-0.454-1.354-0.454-0.798 0-1.499 0.416-1.898 1.044l-0.005 0.009zM1.026 15.55c-0-0.025-0-0.055-0-0.084 0-7.981 6.47-14.45 14.45-14.45 0.185 0 0.369 0.003 0.552 0.010l-0.026-0.001c0.156-0.006 0.34-0.010 0.524-0.010 7.98 0 14.45 6.469 14.45 14.45 0 0.030-0 0.059-0 0.089l0-0.005c0 0.025 0 0.054 0 0.083 0 7.98-6.469 14.45-14.45 14.45-0.185 0-0.369-0.003-0.552-0.010l0.026 0.001c-0.011 0-0.024 0-0.037 0-1.527 0-3.006-0.21-4.408-0.601l0.115 0.027c-0.093-0.026-0.201-0.041-0.311-0.041-0.176 0-0.344 0.038-0.495 0.107l0.008-0.003-2.983 1.31c-0.143 0.065-0.311 0.104-0.487 0.104-0.65 0-1.179-0.517-1.197-1.163l-0-0.002-0.087-2.671c-0.015-0.338-0.165-0.637-0.398-0.848l-0.001-0.001c-2.886-2.611-4.691-6.371-4.691-10.551 0-0.067 0-0.133 0.001-0.2l-0 0.010z"></path>
    </symbol>

    <symbol viewBox="0 0 32 32" id="twitter">
	<path d="M16-0.035C7.159-0.035-0.035,7.159-0.035,16S7.159,32.035,16,32.035S32.035,24.841,32.035,16
		S24.841-0.035,16-0.035z M16,30.965C7.748,30.965,1.035,24.252,1.035,16S7.748,1.035,16,1.035S30.965,7.748,30.965,16
		S24.252,30.965,16,30.965z"/>
	<path d="M24.797,11.082c-0.027,0.012-0.055,0.024-0.083,0.036c0.131-0.228,0.238-0.471,0.319-0.725
		c0.063-0.198-0.002-0.414-0.165-0.543c-0.163-0.129-0.388-0.145-0.566-0.039c-0.522,0.31-1.083,0.538-1.673,0.681
		c-0.693-0.632-1.608-0.99-2.553-0.99c-2.086,0-3.783,1.696-3.783,3.781c0,0.066,0.001,0.131,0.005,0.197
		c-2.259-0.271-4.346-1.415-5.797-3.195c-0.104-0.127-0.262-0.201-0.427-0.183c-0.164,0.013-0.31,0.105-0.393,0.247
		c-0.334,0.574-0.512,1.232-0.512,1.902c0,0.667,0.15,1.29,0.432,1.832c-0.147-0.03-0.295,0.025-0.412,0.116
		C9.071,14.292,9,14.458,9,14.611c0,1.157,0.547,2.218,1.422,2.921c-0.007,0.007-0.014,0.014-0.021,0.022
		c-0.117,0.132-0.155,0.316-0.102,0.484c0.356,1.11,1.194,1.968,2.242,2.373c-1.063,0.542-2.3,0.752-3.487,0.616
		C8.83,21,8.605,21.137,8.526,21.356c-0.078,0.219,0.005,0.463,0.202,0.589c1.587,1.017,3.42,1.554,5.302,1.554
		c6.159,0,9.839-5.002,9.839-9.839c0-0.06,0-0.12-0.001-0.18c0.601-0.466,1.12-1.025,1.547-1.664c0.124-0.185,0.11-0.429-0.033-0.6
		C25.239,11.046,25.001,10.993,24.797,11.082z M23.068,12.829c-0.138,0.099-0.216,0.261-0.208,0.431
		c0.006,0.133,0.009,0.267,0.009,0.4c0,4.345-3.306,8.839-8.839,8.839c-1.038,0-2.059-0.182-3.023-0.534
		c1.145-0.198,2.218-0.674,3.152-1.406c0.167-0.13,0.233-0.352,0.166-0.552c-0.067-0.201-0.253-0.337-0.465-0.341
		c-0.928-0.017-1.766-0.488-2.266-1.227c0.246-0.015,0.482-0.056,0.742-0.126c0.224-0.061,0.376-0.268,0.368-0.5
		c-0.008-0.231-0.174-0.427-0.401-0.473c-1.079-0.217-1.94-1.047-2.212-2.076c0.045,0.016,0.086,0.03,0.125,0.044
		c0.251,0.09,0.45,0.162,0.828,0.173c0.231,0.001,0.423-0.135,0.492-0.348s-0.013-0.444-0.198-0.568
		c-0.741-0.495-1.166-1.339-1.166-2.316c0-0.247,0.033-0.491,0.096-0.726c1.729,1.795,4.088,2.879,6.588,3.005
		c0.155,0.017,0.308-0.059,0.408-0.179c0.101-0.12,0.139-0.281,0.104-0.434c-0.048-0.207-0.072-0.42-0.072-0.635
		c0-1.534,1.249-2.781,2.783-2.781c0.767,0,1.507,0.32,2.031,0.879c0.118,0.125,0.292,0.181,0.462,0.148
		c0.221-0.044,0.439-0.098,0.654-0.162c-0.114,0.096-0.237,0.184-0.366,0.262c-0.203,0.121-0.292,0.367-0.216,0.59
		c0.077,0.223,0.303,0.363,0.532,0.335c0.101-0.012,0.202-0.026,0.302-0.042C23.345,12.622,23.209,12.728,23.068,12.829z"/>

    </symbol>

</svg>